<svg width="947" height="221" viewBox="0 0 947 221" fill="none" xmlns="http://www.w3.org/2000/svg">
<path d="M78.9707 123.427H57.1445V105.629H78.9707C82.0469 105.629 84.5371 104.945 86.4414 103.578C88.3457 102.211 89.7373 100.331 90.6162 97.9385C91.4951 95.4971 91.9346 92.7627 91.9346 89.7354C91.9346 86.6592 91.4951 83.7783 90.6162 81.0928C89.7373 78.4072 88.3457 76.2588 86.4414 74.6475C84.5371 72.9873 82.0469 72.1572 78.9707 72.1572H64.1025V161H42.6426V54.3594H78.9707C86.1484 54.3594 92.3008 55.873 97.4277 58.9004C102.604 61.9277 106.583 66.1025 109.366 71.4248C112.149 76.6982 113.541 82.7529 113.541 89.5889C113.541 96.4736 112.149 102.455 109.366 107.533C106.583 112.562 102.604 116.469 97.4277 119.252C92.3008 122.035 86.1484 123.427 78.9707 123.427ZM123.502 124.086V118.739C123.502 112.538 124.234 107.045 125.699 102.26C127.213 97.4746 129.361 93.4707 132.145 90.248C134.928 86.9766 138.272 84.5107 142.179 82.8506C146.134 81.1416 150.553 80.2871 155.436 80.2871C160.367 80.2871 164.786 81.1416 168.692 82.8506C172.647 84.5107 176.017 86.9766 178.8 90.248C181.632 93.4707 183.805 97.4746 185.318 102.26C186.832 107.045 187.589 112.538 187.589 118.739V124.086C187.589 130.238 186.832 135.707 185.318 140.492C183.805 145.277 181.632 149.306 178.8 152.577C176.017 155.849 172.672 158.314 168.766 159.975C164.859 161.635 160.465 162.465 155.582 162.465C150.699 162.465 146.28 161.635 142.325 159.975C138.419 158.314 135.05 155.849 132.218 152.577C129.386 149.306 127.213 145.277 125.699 140.492C124.234 135.707 123.502 130.238 123.502 124.086ZM144.01 118.739V124.086C144.01 127.748 144.254 130.922 144.742 133.607C145.279 136.293 146.036 138.515 147.013 140.272C148.038 142.03 149.259 143.324 150.675 144.154C152.091 144.984 153.727 145.399 155.582 145.399C157.438 145.399 159.098 144.984 160.562 144.154C162.027 143.324 163.224 142.03 164.151 140.272C165.128 138.515 165.836 136.293 166.275 133.607C166.764 130.922 167.008 127.748 167.008 124.086V118.739C167.008 115.175 166.739 112.05 166.202 109.364C165.665 106.63 164.908 104.408 163.932 102.699C162.955 100.941 161.734 99.623 160.27 98.7441C158.854 97.8164 157.242 97.3525 155.436 97.3525C153.629 97.3525 152.018 97.8164 150.602 98.7441C149.234 99.623 148.038 100.941 147.013 102.699C146.036 104.408 145.279 106.63 144.742 109.364C144.254 112.05 144.01 115.175 144.01 118.739ZM219.156 140.126L232.999 81.752H245.89L242.74 105.482L229.117 161H218.351L219.156 140.126ZM215.201 81.752L224.649 139.979L224.576 161H211.979L195.499 81.752H215.201ZM256.29 139.027L265.445 81.752H285.294L268.741 161H256.144L256.29 139.027ZM247.647 81.752L261.49 139.687L262.442 161H251.676L238.053 105.629L234.977 81.752H247.647ZM327.555 162.465C322.135 162.465 317.325 161.635 313.126 159.975C308.976 158.314 305.46 155.922 302.579 152.797C299.698 149.623 297.501 145.79 295.987 141.298C294.474 136.806 293.717 131.679 293.717 125.917V119.398C293.717 112.953 294.449 107.313 295.914 102.479C297.379 97.5967 299.454 93.4951 302.14 90.1748C304.825 86.8545 308.121 84.3887 312.027 82.7773C315.982 81.1172 320.45 80.2871 325.431 80.2871C330.411 80.2871 334.781 81.1172 338.541 82.7773C342.35 84.3887 345.499 86.8301 347.989 90.1016C350.479 93.3242 352.359 97.3281 353.629 102.113C354.898 106.898 355.533 112.465 355.533 118.812V128.188H302.433V113.759H335.392V111.928C335.392 108.705 335.05 106.02 334.366 103.871C333.683 101.674 332.608 100.038 331.144 98.9639C329.679 97.8896 327.726 97.3525 325.284 97.3525C323.233 97.3525 321.5 97.7676 320.084 98.5977C318.668 99.4277 317.545 100.722 316.715 102.479C315.885 104.237 315.274 106.532 314.884 109.364C314.493 112.147 314.298 115.492 314.298 119.398V125.917C314.298 129.579 314.615 132.655 315.25 135.146C315.885 137.587 316.812 139.589 318.033 141.151C319.303 142.665 320.841 143.764 322.647 144.447C324.454 145.082 326.554 145.399 328.946 145.399C332.56 145.399 335.807 144.765 338.688 143.495C341.617 142.177 344.107 140.395 346.158 138.148L354.361 150.6C352.945 152.455 350.992 154.311 348.502 156.166C346.012 158.021 343.033 159.535 339.566 160.707C336.1 161.879 332.096 162.465 327.555 162.465ZM387.906 99.4033V161H367.398V81.752H386.734L387.906 99.4033ZM406.583 81.166L406.29 101.601C405.362 101.405 404.239 101.259 402.921 101.161C401.651 101.063 400.528 101.015 399.552 101.015C397.257 101.015 395.304 101.381 393.692 102.113C392.081 102.797 390.738 103.847 389.664 105.263C388.639 106.63 387.857 108.339 387.32 110.39C386.783 112.44 386.466 114.76 386.368 117.348L382.486 115.883C382.486 110.707 382.877 105.971 383.658 101.674C384.488 97.3281 385.709 93.5684 387.32 90.3945C388.932 87.1719 390.86 84.6816 393.106 82.9238C395.401 81.166 397.989 80.2871 400.87 80.2871C401.847 80.2871 402.872 80.3848 403.946 80.5801C405.069 80.7266 405.948 80.9219 406.583 81.166Z" fill="#004D95"/>
<path d="M493.569 99.4033V117.201C493.569 124.721 492.642 131.312 490.786 136.977C488.979 142.592 486.392 147.304 483.022 151.112C479.702 154.872 475.674 157.704 470.938 159.608C466.25 161.513 461.05 162.465 455.337 162.465C449.624 162.465 444.399 161.513 439.663 159.608C434.976 157.704 430.923 154.872 427.505 151.112C424.136 147.304 421.523 142.592 419.668 136.977C417.812 131.312 416.885 124.721 416.885 117.201V99.4033C416.885 91.6885 417.788 84.9502 419.595 79.1885C421.401 73.3779 424.014 68.5439 427.432 64.6865C430.85 60.7803 434.902 57.8506 439.59 55.8975C444.277 53.8955 449.478 52.8945 455.19 52.8945C460.903 52.8945 466.104 53.8955 470.791 55.8975C475.479 57.8506 479.531 60.7803 482.949 64.6865C486.367 68.5439 488.979 73.3779 490.786 79.1885C492.642 84.9502 493.569 91.6885 493.569 99.4033ZM472.256 117.201V99.2568C472.256 94.1787 471.89 89.8574 471.157 86.293C470.425 82.6797 469.326 79.7256 467.861 77.4307C466.396 75.1357 464.614 73.4512 462.515 72.377C460.415 71.3027 457.974 70.7656 455.19 70.7656C452.407 70.7656 449.941 71.3027 447.793 72.377C445.693 73.4512 443.911 75.1357 442.446 77.4307C441.03 79.7256 439.956 82.6797 439.224 86.293C438.54 89.8574 438.198 94.1787 438.198 99.2568V117.201C438.198 122.084 438.564 126.259 439.297 129.726C440.029 133.192 441.128 136.024 442.593 138.222C444.058 140.419 445.84 142.055 447.939 143.129C450.088 144.154 452.554 144.667 455.337 144.667C458.071 144.667 460.488 144.154 462.588 143.129C464.736 142.055 466.519 140.419 467.935 138.222C469.351 136.024 470.425 133.192 471.157 129.726C471.89 126.259 472.256 122.084 472.256 117.201ZM528.652 96.9863V191.469H508.218V81.752H527.114L528.652 96.9863ZM569.814 118.666V123.939C569.814 130.141 569.277 135.634 568.203 140.419C567.129 145.155 565.518 149.184 563.369 152.504C561.27 155.775 558.633 158.266 555.459 159.975C552.285 161.635 548.574 162.465 544.326 162.465C540.371 162.465 536.953 161.537 534.072 159.682C531.24 157.777 528.848 155.165 526.895 151.845C524.941 148.524 523.379 144.643 522.207 140.199C521.035 135.756 520.132 130.995 519.497 125.917V117.714C520.083 112.294 520.938 107.313 522.061 102.772C523.184 98.1826 524.722 94.2031 526.675 90.834C528.677 87.4648 531.094 84.877 533.926 83.0703C536.807 81.2148 540.225 80.2871 544.18 80.2871C548.477 80.2871 552.212 81.0684 555.386 82.6309C558.608 84.1934 561.27 86.5615 563.369 89.7354C565.518 92.8604 567.129 96.8398 568.203 101.674C569.277 106.508 569.814 112.172 569.814 118.666ZM549.233 123.939V118.666C549.233 114.857 549.038 111.61 548.647 108.925C548.257 106.239 547.622 104.042 546.743 102.333C545.864 100.624 544.717 99.3789 543.301 98.5977C541.885 97.8164 540.151 97.4258 538.101 97.4258C536.099 97.4258 534.341 97.8164 532.827 98.5977C531.362 99.3789 530.166 100.526 529.238 102.04C528.311 103.505 527.603 105.312 527.114 107.46C526.626 109.56 526.357 111.952 526.309 114.638V128.993C526.406 132.167 526.821 134.975 527.554 137.416C528.335 139.857 529.58 141.811 531.289 143.275C532.998 144.691 535.317 145.399 538.247 145.399C540.347 145.399 542.08 144.96 543.447 144.081C544.863 143.202 546.011 141.884 546.89 140.126C547.769 138.368 548.379 136.146 548.721 133.461C549.062 130.775 549.233 127.602 549.233 123.939ZM616.982 81.752V97.2061H576.553V81.752H616.982ZM585.854 62.1963H606.289V136.83C606.289 138.979 606.509 140.663 606.948 141.884C607.388 143.056 608.047 143.886 608.926 144.374C609.854 144.813 611.05 145.033 612.515 145.033C613.589 145.033 614.565 144.984 615.444 144.887C616.323 144.74 616.982 144.594 617.422 144.447V160.487C615.811 161.122 614.102 161.61 612.295 161.952C610.537 162.294 608.438 162.465 605.996 162.465C601.895 162.465 598.33 161.708 595.303 160.194C592.324 158.632 590.005 156.117 588.345 152.65C586.685 149.184 585.854 144.643 585.854 139.027V62.1963ZM649.941 81.752V161H629.36V81.752H649.941ZM628.408 61.1709C628.408 57.9971 629.409 55.3848 631.411 53.334C633.462 51.2832 636.221 50.2578 639.688 50.2578C643.105 50.2578 645.815 51.2832 647.817 53.334C649.819 55.3848 650.82 57.9971 650.82 61.1709C650.82 64.3447 649.819 66.9814 647.817 69.0811C645.815 71.1318 643.105 72.1572 639.688 72.1572C636.221 72.1572 633.462 71.1318 631.411 69.0811C629.409 66.9814 628.408 64.3447 628.408 61.1709ZM686.855 98.1582V161H666.274V81.752H685.537L686.855 98.1582ZM683.999 118.666L678.286 118.812C678.188 113.246 678.677 108.119 679.751 103.432C680.825 98.7441 682.437 94.667 684.585 91.2002C686.782 87.7334 689.541 85.0479 692.861 83.1436C696.23 81.2393 700.112 80.2871 704.507 80.2871C707.339 80.2871 709.976 80.8242 712.417 81.8984C714.907 82.9238 717.031 84.5596 718.789 86.8057C720.596 89.0029 721.987 91.8838 722.964 95.4482C723.94 98.9639 724.429 103.188 724.429 108.119V161H703.994V110.609C703.994 107.094 703.652 104.408 702.969 102.553C702.285 100.648 701.309 99.3301 700.039 98.5977C698.77 97.8164 697.207 97.4258 695.352 97.4258C693.398 97.4258 691.689 97.9629 690.225 99.0371C688.76 100.111 687.563 101.625 686.636 103.578C685.757 105.482 685.073 107.729 684.585 110.316C684.146 112.904 683.95 115.688 683.999 118.666ZM722.524 116.615L715.2 117.567C715.054 112.343 715.493 107.46 716.519 102.919C717.544 98.3779 719.131 94.4229 721.279 91.0537C723.428 87.6846 726.113 85.0479 729.336 83.1436C732.607 81.2393 736.392 80.2871 740.688 80.2871C743.911 80.2871 746.841 80.8242 749.478 81.8984C752.114 82.9727 754.36 84.7061 756.216 87.0986C758.12 89.4424 759.561 92.543 760.537 96.4004C761.562 100.209 762.075 104.896 762.075 110.463V161H741.494V110.536C741.494 106.972 741.152 104.237 740.469 102.333C739.834 100.429 738.882 99.1348 737.612 98.4512C736.343 97.7676 734.805 97.4258 732.998 97.4258C731.24 97.4258 729.702 97.9141 728.384 98.8906C727.114 99.8672 726.04 101.234 725.161 102.992C724.282 104.75 723.623 106.776 723.184 109.071C722.744 111.366 722.524 113.881 722.524 116.615ZM815.835 141.957V81.752H836.416V161H817.08L815.835 141.957ZM818.179 125.624L823.892 125.478C823.892 130.8 823.379 135.731 822.354 140.272C821.328 144.765 819.79 148.671 817.739 151.991C815.737 155.312 813.174 157.899 810.049 159.755C806.973 161.562 803.335 162.465 799.136 162.465C795.913 162.465 792.935 161.928 790.2 160.854C787.515 159.73 785.195 157.997 783.242 155.653C781.289 153.261 779.751 150.209 778.628 146.498C777.554 142.738 777.017 138.246 777.017 133.021V81.752H797.598V133.168C797.598 135.316 797.769 137.172 798.11 138.734C798.501 140.248 799.038 141.493 799.722 142.47C800.454 143.446 801.284 144.154 802.212 144.594C803.14 144.984 804.189 145.18 805.361 145.18C808.584 145.18 811.123 144.35 812.979 142.689C814.883 140.98 816.226 138.661 817.007 135.731C817.788 132.753 818.179 129.384 818.179 125.624ZM886.514 139.613C886.514 138.246 886.05 137.025 885.122 135.951C884.194 134.877 882.729 133.778 880.728 132.655C878.726 131.483 876.064 130.189 872.744 128.773C869.131 127.309 865.933 125.795 863.149 124.232C860.366 122.67 857.998 120.937 856.045 119.032C854.141 117.128 852.7 114.955 851.724 112.514C850.747 110.072 850.259 107.289 850.259 104.164C850.259 100.795 850.869 97.6943 852.09 94.8623C853.359 91.9814 855.166 89.4668 857.51 87.3184C859.854 85.1211 862.71 83.4121 866.079 82.1914C869.497 80.9219 873.33 80.2871 877.578 80.2871C883.535 80.2871 888.638 81.3369 892.886 83.4365C897.183 85.4873 900.479 88.3682 902.773 92.0791C905.068 95.79 906.216 100.111 906.216 105.043H885.708C885.708 103.285 885.439 101.723 884.902 100.355C884.365 98.9395 883.486 97.8408 882.266 97.0596C881.094 96.2783 879.507 95.8877 877.505 95.8877C876.04 95.8877 874.722 96.2051 873.55 96.8398C872.427 97.4746 871.523 98.3291 870.84 99.4033C870.205 100.429 869.888 101.649 869.888 103.065C869.888 104.14 870.107 105.092 870.547 105.922C871.035 106.752 871.792 107.558 872.817 108.339C873.843 109.12 875.21 109.95 876.919 110.829C878.677 111.659 880.825 112.587 883.364 113.612C888.638 115.565 892.959 117.665 896.328 119.911C899.746 122.157 902.285 124.794 903.945 127.821C905.605 130.8 906.436 134.486 906.436 138.881C906.436 142.396 905.752 145.595 904.385 148.476C903.066 151.356 901.138 153.847 898.599 155.946C896.06 158.046 893.008 159.657 889.443 160.78C885.928 161.903 881.997 162.465 877.651 162.465C871.255 162.465 865.859 161.195 861.465 158.656C857.07 156.117 853.75 152.87 851.504 148.915C849.258 144.911 848.135 140.761 848.135 136.464H867.617C867.715 139.101 868.203 141.176 869.082 142.689C870.01 144.154 871.255 145.18 872.817 145.766C874.38 146.352 876.113 146.645 878.018 146.645C879.922 146.645 881.484 146.4 882.705 145.912C883.975 145.375 884.927 144.569 885.562 143.495C886.196 142.372 886.514 141.078 886.514 139.613Z" fill="#1E9500"/>
</svg>
